<?xml version="1.0" standalone="no"?>
<!-- vatger icon mark: traced directly from the official favicon.png in the
     brand package (via potrace), recolored to the brand accent coral -->
<svg version="1.0" xmlns="http://www.w3.org/2000/svg"
 width="64.000000pt" height="65.000000pt" viewBox="0 0 64.000000 65.000000"
 preserveAspectRatio="xMidYMid meet">
<g transform="translate(0.000000,65.000000) scale(0.100000,-0.100000)"
fill="#ea5763" stroke="none">
<path d="M174 636 c-3 -8 11 -64 30 -125 20 -61 36 -115 36 -121 0 -6 -34 -10
-84 -10 l-84 0 -21 35 c-11 19 -27 35 -36 35 -13 0 -15 -19 -15 -125 0 -106 2
-125 15 -125 9 0 25 16 36 35 l21 35 84 0 c50 0 84 -4 84 -10 0 -6 -16 -60
-36 -121 -19 -61 -33 -117 -30 -125 3 -8 17 -14 31 -14 28 0 47 23 139 173 36
57 68 98 80 101 12 3 52 6 89 6 41 0 80 6 97 15 69 35 12 75 -107 75 -43 0
-83 4 -89 8 -6 4 -44 59 -84 122 -40 63 -79 123 -88 133 -18 21 -60 23 -68 3z"/>
</g>
</svg>
